#N canvas -8 -8 1920 997 12;
#X obj 187 36 inlet~;
#X obj 1001 34 inlet;
#X obj 1094 37 inlet;
#X obj 750 37 inlet;
#X obj 882 35 inlet;
#X text 175 10 channel 1;
#X text 1008 8 dry;
#X text 1096 12 wet;
#X text 730 14 center freq.;
#X text 871 10 resonance;
#X floatatom 1001 101 5 0 0 0 - - -;
#X floatatom 1094 101 5 0 0 0 - - -;
#X floatatom 882 99 5 0 0 0 - - -;
#X floatatom 750 102 5 0 0 0 - - -;
#X obj 307 162 *~ 1;
#X obj 1246 40 inlet;
#X floatatom 1249 99 5 0 0 0 - - -;
#X text 1246 14 pan;
#X obj 188 157 *~ 1;
#N canvas 0 22 170 92 scale_wet 0;
#X obj 22 42 inlet;
#X obj 22 143 outlet;
#X text 49 74 scalewet;
#X obj 40 112 s \$0-wet;
#X obj 22 73 * 10;
#X connect 0 0 4 0;
#X connect 4 0 1 0;
#X connect 4 0 3 0;
#X restore 1094 69 pd scale_wet;
#X obj 448 26 inlet~;
#X obj 568 157 *~ 1;
#X obj 449 153 *~ 1;
#X text 437 6 channel 2;
#N canvas 0 50 450 300 scale_center_f 0;
#X obj 50 33 inlet;
#X obj 52 179 outlet;
#X obj 102 150 s \$0-wah_cf;
#X obj 48 62 + 1;
#X obj 47 85 / 2;
#X text 98 68 scale between 0 and 1;
#X text 54 8 this receives x-tilt data;
#X obj 51 110 expr 2200*$f1 + 350;
#X connect 0 0 3 0;
#X connect 3 0 4 0;
#X connect 4 0 7 0;
#X connect 7 0 1 0;
#X connect 7 0 2 0;
#X restore 748 68 pd scale_center_f;
#N canvas 0 50 450 300 wah_dry 0;
#X obj 32 40 inlet;
#X obj 32 141 outlet;
#X text 58 75 scaledry;
#X obj 32 74 * 1;
#X obj 41 105 s \$0-wah_dry;
#X connect 0 0 3 0;
#X connect 3 0 1 0;
#X connect 3 0 4 0;
#X restore 1001 66 pd wah_dry;
#X obj 213 126 r \$0-wah_dry;
#X obj 335 131 r \$0-wah_wet;
#X obj 474 122 r \$0-wah_dry;
#X obj 596 126 r \$0-wah_wet;
#X obj 333 31 r \$0-wah_cf;
#X obj 597 23 r \$0-wah_cf;
#X obj 370 59 r \$0-wah_reson;
#X obj 634 50 r \$0-wah_reson;
#N canvas 0 50 450 300 wah_reson 0;
#X obj 16 13 inlet;
#X obj 16 114 outlet;
#X text 60 48 scalereson;
#X obj 25 78 s \$0-wah_reson;
#X obj 16 47 * 3.5;
#X connect 0 0 4 0;
#X connect 4 0 1 0;
#X connect 4 0 3 0;
#X restore 883 70 pd wah_reson;
#X obj 129 557 outlet~;
#X obj 285 567 outlet~;
#N canvas 0 50 840 485 pan_abs 0;
#X obj 37 40 inlet~;
#X obj 214 39 inlet;
#X obj 197 284 outlet~;
#X obj 283 284 outlet~;
#X obj 196 244 *~;
#X obj 214 120 sig~;
#X obj 413 85 expr sin(($f1*3.14159)/2.);
#X obj 214 86 expr cos(($f1*3.14159)/2.);
#X text 37 16 channel 1;
#X obj 125 41 inlet~;
#X text 125 17 channel 2;
#X text 214 15 pan;
#X obj 413 118 sig~;
#X obj 282 247 *~;
#X connect 0 0 4 0;
#X connect 1 0 7 0;
#X connect 1 0 6 0;
#X connect 4 0 2 0;
#X connect 5 0 4 1;
#X connect 6 0 12 0;
#X connect 7 0 5 0;
#X connect 9 0 13 0;
#X connect 12 0 13 1;
#X connect 13 0 3 0;
#X restore 228 276 pd pan_abs;
#X f 17;
#X obj 33 30 inlet;
#X text 32 9 bypass;
#X obj 131 451 vspigot~;
#X obj 285 459 vspigot~;
#X obj 34 61 s \$0-wah_bypass;
#X obj 122 417 r \$0-wah_bypass;
#X obj 276 425 r \$0-wah_bypass;
#X obj 1349 42 inlet;
#X floatatom 1395 76 5 0 0 0 - - -;
#X text 1328 18 output gain, f 12;
#X obj 1349 101 s \$0-wah_out_gain;
#X obj 183 353 *~;
#X obj 206 321 r \$0-wah_out_gain;
#X obj 351 361 *~;
#X obj 363 332 r \$0-wah_out_gain;
#X obj 310 94 bob~, f 11;
#X obj 571 89 bob~, f 11;
#X obj 948 514 inlet~;
#X obj 984 543 r \$0-wah_cf;
#X obj 1021 571 r \$0-wah_reson;
#X obj 947 606 bob~, f 11;
#X text 936 492 signal in;
#X connect 0 0 18 0;
#X connect 0 0 40 1;
#X connect 0 0 53 0;
#X connect 1 0 25 0;
#X connect 2 0 19 0;
#X connect 3 0 24 0;
#X connect 4 0 34 0;
#X connect 14 0 37 0;
#X connect 15 0 16 0;
#X connect 15 0 37 2;
#X connect 18 0 37 0;
#X connect 19 0 11 0;
#X connect 20 0 22 0;
#X connect 20 0 41 1;
#X connect 20 0 54 0;
#X connect 21 0 37 1;
#X connect 22 0 37 1;
#X connect 24 0 13 0;
#X connect 25 0 10 0;
#X connect 26 0 18 1;
#X connect 27 0 14 1;
#X connect 28 0 22 1;
#X connect 29 0 21 1;
#X connect 30 0 53 1;
#X connect 31 0 54 1;
#X connect 32 0 53 2;
#X connect 33 0 54 2;
#X connect 34 0 12 0;
#X connect 37 0 49 0;
#X connect 37 1 51 0;
#X connect 38 0 42 0;
#X connect 40 0 35 0;
#X connect 41 0 36 0;
#X connect 43 0 40 0;
#X connect 44 0 41 0;
#X connect 45 0 48 0;
#X connect 45 0 46 0;
#X connect 49 0 40 2;
#X connect 50 0 49 1;
#X connect 51 0 41 2;
#X connect 52 0 51 1;
#X connect 53 0 14 0;
#X connect 54 0 21 0;
#X connect 55 0 58 0;
#X connect 56 0 58 1;
#X connect 57 0 58 2;
