#N canvas -1928 -8 1920 997 12;
#X obj 294 428 hsl 128 15 0 1 0 1 empty drySlider dry -2 -8 0 10 -260909
-1 -1 0 1;
#X obj 332 462 hsl 128 15 0 1 0 1 empty wetSlider wet -2 -8 0 10 -184253
-1 -1 0 1;
#X obj 218 362 hsl 128 15 0 1 0 1 empty dampingSlider intensity -2
-8 0 10 -143338 -1 -1 0 1;
#X obj 180 320 hsl 128 15 0 1 0 1 empty /roomsizeSlider delay_time
-2 -8 0 10 -232126 -1 -1 0 1;
#X obj 371 491 hsl 128 15 0 1 0 1 empty panSlider pan -2 -8 0 10 -262113
-1 -1 0 1;
#X obj 256 394 hsl 128 15 0 1 0 1 empty dampingSlider cutoff_frequency
-2 -8 0 10 -261020 -1 -1 0 1;
#X obj 63 526 delay_pedal, f 44;
#X obj 614 585 hsl 240 30 0 10 0 1 empty gainSlider gain -2 -8 0 10
-224695 -33289 -33289 0 1;
#X obj 41 168 tgl 15 0 empty onOffToggle bypass 17 7 0 10 -262144 -1
-1 0 1;
#X obj 100 490 ezdac~;
#X obj 673 276 loadbang;
#X msg 673 310 \; pd dsp 1;
#X obj 100 72 receive fromGUI;
#X obj 100 94 list trim;
#X obj 100 115 route /delayOnOffToggle;
#X obj 209 144 receive fromGUI;
#X obj 209 166 list trim;
#X obj 264 220 receive fromGUI;
#X obj 264 242 list trim;
#X obj 264 263 route /delayIntensitySlider;
#X obj 209 187 route /delayTimeSlider;
#X obj 346 290 receive fromGUI;
#X obj 346 312 list trim;
#X obj 346 333 route /delayCutoffFreqSlider;
#X obj 397 356 receive fromGUI;
#X obj 397 378 list trim;
#X obj 397 399 route /delayDrySlider;
#X obj 577 352 receive fromGUI;
#X obj 577 374 list trim;
#X obj 577 395 route /delayWetSlider;
#X obj 576 439 receive fromGUI;
#X obj 576 461 list trim;
#X obj 576 482 route /delayPanSlider;
#X obj 630 508 receive fromGUI;
#X obj 630 530 list trim;
#X obj 29 1 receive fromGUI;
#X obj 29 23 list trim;
#X obj 29 44 route /delayBypassToggle;
#X obj 630 551 route /delayOutputGainSlider;
#X obj 77 598 dac~;
#X connect 0 0 6 6;
#X connect 1 0 6 7;
#X connect 2 0 6 4;
#X connect 3 0 6 3;
#X connect 4 0 6 8;
#X connect 5 0 6 5;
#X connect 6 0 39 0;
#X connect 6 1 39 1;
#X connect 7 0 6 9;
#X connect 8 0 6 0;
#X connect 9 0 6 1;
#X connect 9 1 6 2;
#X connect 10 0 11 0;
#X connect 12 0 13 0;
#X connect 13 0 14 0;
#X connect 14 0 9 0;
#X connect 15 0 16 0;
#X connect 16 0 20 0;
#X connect 17 0 18 0;
#X connect 18 0 19 0;
#X connect 19 0 6 4;
#X connect 20 0 6 3;
#X connect 21 0 22 0;
#X connect 22 0 23 0;
#X connect 23 0 6 5;
#X connect 24 0 25 0;
#X connect 25 0 26 0;
#X connect 26 0 6 6;
#X connect 27 0 28 0;
#X connect 28 0 29 0;
#X connect 29 0 6 7;
#X connect 30 0 31 0;
#X connect 31 0 32 0;
#X connect 32 0 6 8;
#X connect 33 0 34 0;
#X connect 34 0 38 0;
#X connect 35 0 36 0;
#X connect 36 0 37 0;
#X connect 37 0 6 0;
#X connect 38 0 6 9;
