#N canvas -1928 -8 1920 997 12;
#X obj 216 38 inlet~;
#X obj 717 52 inlet;
#X obj 824 49 inlet;
#X text 208 17 channel 1 in;
#X text 1113 28 dry;
#X text 1203 27 wet;
#X obj 1106 49 inlet;
#X obj 1202 49 inlet;
#X obj 1339 56 inlet;
#X text 817 25 intensity;
#X obj 249 436 *~ 1;
#X obj 442 438 *~ 1;
#X obj 328 438 *~ 1;
#X obj 403 438 *~ 1;
#X floatatom 1106 104 5 0 0 0 - - -;
#X floatatom 1202 103 5 0 0 0 - - -;
#X obj 179 110 delwrite~ \$0-delay_ch1 1000;
#X obj 64 235 delread~ \$0-delay_ch1 1000;
#X obj 156 302 *~ 0;
#X floatatom 824 100 5 0 0 0 - - -;
#X obj 168 327 lop~, f 12;
#X obj 976 49 inlet;
#X floatatom 976 97 5 0 0 0 - - -;
#X text 961 27 cutoff freq.;
#X obj 180 266 r \$0-delay_intensity;
#N canvas 195 60 373 349 delay_intensity 0;
#X obj 32 40 inlet;
#X obj 32 141 outlet;
#X text 88 75 scale_intensity;
#X obj 32 73 * 0.95;
#X obj 42 105 s \$0-delay_intensity;
#X connect 0 0 3 0;
#X connect 3 0 1 0;
#X connect 3 0 4 0;
#X restore 824 74 pd delay_intensity;
#N canvas 0 50 450 300 delay_cutoff 0;
#X obj 50 33 inlet;
#X obj 50 136 outlet;
#X obj 50 66 expr 1850*$f1 + 100;
#X obj 102 106 s \$0-delay_cutoff;
#X connect 0 0 2 0;
#X connect 2 0 1 0;
#X connect 2 0 3 0;
#X restore 976 72 pd delay_cutoff;
#X obj 237 294 r \$0-delay_cutoff;
#N canvas 0 22 373 349 delay_dry 0;
#X obj 32 74 * 2;
#X obj 32 40 inlet;
#X obj 32 141 outlet;
#X text 58 75 scaledry;
#X obj 41 105 s \$0-delay_dry;
#X connect 0 0 2 0;
#X connect 0 0 4 0;
#X connect 1 0 0 0;
#X restore 1106 80 pd delay_dry;
#N canvas 0 22 316 305 delay_wet 0;
#X obj 22 42 inlet;
#X obj 22 143 outlet;
#X obj 22 73 * 3;
#X text 49 74 scalewet;
#X obj 40 112 s \$0-delay_wet;
#X connect 0 0 2 0;
#X connect 2 0 1 0;
#X connect 2 0 4 0;
#X restore 1202 78 pd delay_wet;
#X floatatom 1339 83 5 0 0 0 - - -;
#X obj 461 351 r \$0-delay_wet;
#X obj 349 388 r \$0-delay_dry;
#X obj 275 349 r \$0-delay_wet;
#X text 716 27 delay_time;
#X obj 243 66 r \$0-delay_time;
#X obj 62 202 r \$0-delay_time;
#X text 1343 35 pan;
#X obj 64 40 inlet;
#X text 62 17 bypass;
#X obj 64 69 s \$0-delay_bypass;
#N canvas 708 217 450 300 delay_time 0;
#X obj 29 9 inlet;
#X obj 29 48 * 1000;
#X obj 29 128 outlet;
#X obj 92 126 s \$0-delay_time;
#X obj 29 84 + 40;
#X connect 0 0 1 0;
#X connect 1 0 4 0;
#X connect 4 0 2 0;
#X connect 4 0 3 0;
#X restore 717 75 pd delay_time;
#X floatatom 717 99 5 0 0 0 - - -;
#X obj 1435 54 inlet;
#X floatatom 1481 88 5 0 0 0 - - -;
#X text 1414 30 output gain, f 12;
#X obj 1435 113 s \$0-delay_out_gain;
#N canvas 0 50 450 300 pan_abs 0;
#X obj 37 40 inlet~;
#X obj 214 39 inlet;
#X obj 197 284 outlet~;
#X obj 283 284 outlet~;
#X obj 196 244 *~;
#X obj 214 120 sig~;
#X obj 413 85 expr sin(($f1*3.14159)/2.);
#X obj 214 86 expr cos(($f1*3.14159)/2.);
#X text 37 16 channel 1;
#X obj 125 41 inlet~;
#X text 125 17 channel 2;
#X text 214 15 pan;
#X obj 413 118 sig~;
#X obj 282 247 *~;
#X connect 0 0 4 0;
#X connect 1 0 7 0;
#X connect 1 0 6 0;
#X connect 4 0 2 0;
#X connect 5 0 4 1;
#X connect 6 0 12 0;
#X connect 7 0 5 0;
#X connect 9 0 13 0;
#X connect 12 0 13 1;
#X connect 13 0 3 0;
#X restore 299 524 pd pan_abs;
#X f 17;
#X obj 256 707 vspigot~;
#X obj 410 715 vspigot~;
#X obj 308 609 *~;
#X obj 476 617 *~;
#X obj 256 753 outlet~;
#X obj 409 755 outlet~;
#X obj 331 577 r \$0-delay_out_gain;
#X obj 489 588 r \$0-delay_out_gain;
#X obj 247 673 r \$0-delay_bypass;
#X obj 401 681 r \$0-delay_bypass;
#X obj 530 32 inlet~;
#X obj 612 292 *~ 0;
#X obj 624 317 lop~, f 12;
#X obj 636 256 r \$0-delay_intensity;
#X obj 693 284 r \$0-delay_cutoff;
#X obj 557 60 r \$0-delay_time;
#X obj 518 192 r \$0-delay_time;
#X obj 493 104 delwrite~ \$0-delay_ch2 1000;
#X obj 520 222 delread~ \$0-delay_ch2 1000;
#X text 522 11 channel 2 in;
#X connect 0 0 12 0;
#X connect 0 0 16 0;
#X connect 0 0 48 1;
#X connect 1 0 41 0;
#X connect 2 0 25 0;
#X connect 6 0 28 0;
#X connect 7 0 29 0;
#X connect 8 0 30 0;
#X connect 10 0 47 0;
#X connect 11 0 47 1;
#X connect 12 0 47 0;
#X connect 13 0 47 1;
#X connect 17 0 10 0;
#X connect 17 0 18 0;
#X connect 18 0 20 0;
#X connect 20 0 16 0;
#X connect 21 0 26 0;
#X connect 24 0 18 1;
#X connect 25 0 19 0;
#X connect 26 0 22 0;
#X connect 27 0 20 1;
#X connect 28 0 14 0;
#X connect 29 0 15 0;
#X connect 30 0 47 2;
#X connect 31 0 11 1;
#X connect 32 0 13 1;
#X connect 32 0 12 1;
#X connect 33 0 10 1;
#X connect 35 0 16 0;
#X connect 36 0 17 0;
#X connect 38 0 40 0;
#X connect 41 0 42 0;
#X connect 43 0 44 0;
#X connect 43 0 46 0;
#X connect 47 0 50 0;
#X connect 47 1 51 0;
#X connect 48 0 52 0;
#X connect 49 0 53 0;
#X connect 50 0 48 2;
#X connect 51 0 49 2;
#X connect 54 0 50 1;
#X connect 55 0 51 1;
#X connect 56 0 48 0;
#X connect 57 0 49 0;
#X connect 58 0 65 0;
#X connect 58 0 13 0;
#X connect 58 0 49 1;
#X connect 59 0 60 0;
#X connect 60 0 65 0;
#X connect 61 0 59 1;
#X connect 62 0 60 1;
#X connect 63 0 65 0;
#X connect 64 0 66 0;
#X connect 66 0 59 0;
#X connect 66 0 11 0;
