#N canvas -8 -8 1920 997 12;
#X obj 258 181 hsl 128 15 0 1 0 1 empty drySlider dry -2 -8 0 10 -260909
-1 -1 7800 1;
#X obj 292 211 hsl 128 15 0 1 0 1 empty wetSlider wet -2 -8 0 10 -184253
-1 -1 8800 1;
#X obj 190 115 hsl 128 15 0 1 0 1 empty dampingSlider intensity -2
-8 0 10 -143338 -1 -1 6200 1;
#X obj 156 79 hsl 128 15 0 1 0 1 empty /roomsizeSlider delay_time -2
-8 0 10 -232126 -1 -1 3300 1;
#X obj 326 244 hsl 128 15 0 1 0 1 empty panSlider pan -2 -8 0 10 -262113
-1 -1 5600 1;
#X obj 224 147 hsl 128 15 0 1 0 1 empty dampingSlider cutoff_frequency
-2 -8 0 10 -261020 -1 -1 4600 1;
#X obj 52 64 tgl 15 1 empty onOffToggle bypass 17 7 0 10 -262144 -1
-1 1 1;
#X obj 382 283 hsl 240 30 0 1 0 1 empty gainSlider gain -2 -8 0 10
-224695 -33289 -33289 23900 1;
#X obj 52 297 delay_pedal, f 44;
#X obj 103 266 ezdac~;
#X obj 103 18 tgl 30 0 empty onOffToggle patch_audio_on/off 40 7 0
10 -262144 -1 -1 0 1;
#X obj 374 388 hsl 240 30 0 1 0 1 empty gainSlider gain -2 -8 0 10
-224695 -33289 -33289 23900 1;
#X obj 51 371 ezadc~;
#X obj 539 35 loadbang;
#X msg 539 69 \; pd dsp 1;
#X connect 0 0 8 6;
#X connect 1 0 8 7;
#X connect 2 0 8 4;
#X connect 3 0 8 3;
#X connect 4 0 8 8;
#X connect 5 0 8 5;
#X connect 6 0 8 0;
#X connect 7 0 8 9;
#X connect 8 0 12 0;
#X connect 8 1 12 1;
#X connect 9 0 8 1;
#X connect 9 1 8 2;
#X connect 10 0 9 0;
#X connect 11 0 12 2;
#X connect 13 0 14 0;
