#N canvas -8 -8 1920 997 12;
#X obj 142 92 hsl 128 15 0 1 0 1 empty /roomsizeSlider roomsize -2
-8 0 10 -232126 -1 -1 6500 1;
#X obj 178 128 hsl 128 15 0 2 0 1 empty dampingSlider damping -2 -8
0 10 -143338 -1 -1 7100 1;
#X obj 213 162 hsl 128 15 0 1 0 1 empty drySlider dry -2 -8 0 10 -260909
-1 -1 6500 1;
#X obj 249 198 hsl 128 15 0 1 0 1 empty wetSlider wet -2 -8 0 10 -184253
-1 -1 11000 1;
#X obj 284 234 hsl 128 15 0 1 0 1 empty panSlider pan -2 -8 0 10 -262113
-1 -1 6300 1;
#X obj 33 78 tgl 15 1 empty onOffToggle bypass 17 7 0 10 -262144 -1
-1 0 1;
#X obj 356 379 hsl 240 30 0 1 0 1 empty gainSlider gain -2 -8 0 10
-224695 -33289 -33289 23900 1;
#X obj 33 362 ezadc~;
#X obj 33 285 reverb_pedal, f 41;
#X obj 349 274 hsl 240 30 0 1 0 1 empty gainSlider gain -2 -8 0 10
-224695 -33289 -33289 23900 1;
#X obj 90 253 ezdac~;
#X obj 90 25 tgl 30 0 empty onOffToggle patch_audio_on/off 40 7 0 10
-262144 -1 -1 0 1;
#X obj 539 28 loadbang;
#X msg 539 62 \; pd dsp 1;
#X connect 0 0 8 3;
#X connect 1 0 8 4;
#X connect 2 0 8 5;
#X connect 3 0 8 6;
#X connect 4 0 8 7;
#X connect 5 0 8 0;
#X connect 6 0 7 2;
#X connect 8 0 7 0;
#X connect 8 1 7 1;
#X connect 9 0 8 8;
#X connect 10 0 8 1;
#X connect 10 1 8 2;
#X connect 11 0 10 0;
#X connect 12 0 13 0;
