#N canvas 0 50 450 300 12;
#X obj 88 99 adc~;
#X obj 45 177 *~;
#X msg 43 64 \$1 100;
#X obj 42 99 line~;
#X obj 40 17 inlet;
#X obj 39 245 outlet~;
#X obj 45 205 *~ 0.6;
#X obj 82 143 +~;
#X connect 0 0 7 0;
#X connect 0 1 7 1;
#X connect 1 0 6 0;
#X connect 2 0 3 0;
#X connect 3 0 1 1;
#X connect 4 0 2 0;
#X connect 6 0 5 0;
#X connect 7 0 1 0;
