#N canvas -731 102 450 300 12;
#X obj 88 99 adc~;
#X obj 42 139 *~;
#X msg 43 64 \$1 100;
#X obj 42 99 line~;
#X obj 95 139 *~;
#X obj 40 17 inlet;
#X obj 36 207 outlet~;
#X obj 107 210 outlet~;
#X obj 42 167 *~ 0.7;
#X obj 97 166 *~ 0.7;
#X connect 0 0 1 0;
#X connect 0 1 4 0;
#X connect 1 0 8 0;
#X connect 2 0 3 0;
#X connect 3 0 1 1;
#X connect 3 0 4 1;
#X connect 4 0 9 0;
#X connect 5 0 2 0;
#X connect 8 0 6 0;
#X connect 9 0 7 0;
