#N canvas -1031 123 850 614 12;
#X obj 272 161 inlet~;
#X obj 151 72 inlet;
#X obj 127 373 outlet~;
#X obj 128 309 *~ 1;
#X obj 388 160 inlet~;
#X obj 361 307 *~ 1;
#X text 473 45 adapted from shindeibrauns' patch \, added a second
signal input;
#X text 465 83 https://forum.pdpatchrepo.info/topic/10540/change-route-with-a-toggle
;
#X text 144 52 indexer;
#X floatatom 185 101 5 0 0 0 - - -;
#X floatatom 143 164 5 0 0 0 - - -;
#X obj 143 131 != 1;
#X text 52 11 takes a toggle input \, outputs "signal 1" when 0 (not
toggled) \, and "signal 2" when 1 (toggled);
#X text 268 139 mono signal;
#X text 405 139 stereo signal;
#X obj 433 160 inlet~;
#X obj 321 372 outlet~;
#X obj 426 308 *~ 1;
#X obj 266 372 outlet~;
#X connect 0 0 3 0;
#X connect 1 0 9 0;
#X connect 1 0 11 0;
#X connect 1 0 5 1;
#X connect 1 0 17 1;
#X connect 3 0 2 0;
#X connect 3 0 18 0;
#X connect 4 0 5 0;
#X connect 5 0 18 0;
#X connect 10 0 3 1;
#X connect 11 0 10 0;
#X connect 15 0 17 0;
#X connect 17 0 16 0;
