#N canvas 0 50 450 300 12;
#X obj 37 40 inlet~;
#X obj 214 39 inlet;
#X obj 197 284 outlet~;
#X obj 283 284 outlet~;
#X obj 196 244 *~;
#X obj 214 120 sig~;
#X obj 413 85 expr sin(($f1*3.14159)/2.);
#X obj 214 86 expr cos(($f1*3.14159)/2.);
#X text 37 16 channel 1;
#X obj 125 41 inlet~;
#X text 125 17 channel 2;
#X text 214 15 pan;
#X obj 413 118 sig~;
#X obj 282 247 *~;
#X connect 0 0 4 0;
#X connect 1 0 7 0;
#X connect 1 0 6 0;
#X connect 4 0 2 0;
#X connect 5 0 4 1;
#X connect 6 0 12 0;
#X connect 7 0 5 0;
#X connect 9 0 13 0;
#X connect 12 0 13 1;
#X connect 13 0 3 0;
