#N canvas -1385 236 1224 502 10;
#X obj 272 161 inlet~;
#X obj 151 72 inlet;
#X obj 127 373 outlet~;
#X obj 128 309 *~ 1;
#X obj 357 160 inlet~;
#X obj 330 307 *~ 1;
#X text 473 45 adapted from shindeibrauns' patch \, added a second
signal input;
#X text 465 83 https://forum.pdpatchrepo.info/topic/10540/change-route-with-a-toggle
;
#X text 268 139 signal 1;
#X text 354 139 signal 2;
#X text 144 52 indexer;
#X floatatom 185 101 5 0 0 0 - - -;
#X floatatom 143 164 5 0 0 0 - - -;
#X obj 143 131 != 1;
#X text 52 11 takes a toggle input \, outputs "signal 1" when 0 (not
toggled) \, and "signal 2" when 1 (toggled);
#X connect 0 0 3 0;
#X connect 1 0 11 0;
#X connect 1 0 13 0;
#X connect 1 0 5 1;
#X connect 3 0 2 0;
#X connect 4 0 5 0;
#X connect 5 0 2 0;
#X connect 12 0 3 1;
#X connect 13 0 12 0;
