#N canvas -8 -8 1920 997 12;
#X obj 255 166 hsl 128 15 0 1 0 1 empty dampingSlider level -2 -8 0
10 -143338 -1 -1 9500 1;
#X obj 204 132 hsl 128 15 40 1000 0 1 empty /roomsizeSlider gain -2
-8 0 10 -232126 -1 -1 9200 1;
#X obj 306 199 hsl 128 15 0 1 0 1 empty panSlider pan -2 -8 0 10 -262113
-1 -1 6700 1;
#X obj 49 117 tgl 15 1 empty onOffToggle bypass 17 7 0 10 -262144 -1
-1 0 1;
#X obj 376 236 hsl 240 30 0 1 0 1 empty gainSlider gain -2 -8 0 10
-224695 -33289 -33289 23900 1;
#X obj 49 245 distortion_pedal, f 44;
#X obj 110 215 ezdac~;
#X obj 110 70 tgl 30 0 empty onOffToggle patch_audio_on/off 40 7 0
10 -262144 -1 -1 1 1;
#X obj 373 335 hsl 240 30 0 1 0 1 empty gainSlider gain -2 -8 0 10
-224695 -33289 -33289 23900 1;
#X obj 50 318 ezadc~;
#X obj 569 36 loadbang;
#X msg 569 70 \; pd dsp 1;
#X connect 0 0 5 4;
#X connect 1 0 5 3;
#X connect 2 0 5 5;
#X connect 3 0 5 0;
#X connect 4 0 5 6;
#X connect 5 0 9 0;
#X connect 5 1 9 1;
#X connect 6 0 5 1;
#X connect 6 1 5 2;
#X connect 7 0 6 0;
#X connect 8 0 9 2;
#X connect 10 0 11 0;
