#N canvas -8 -8 1920 997 12;
#X obj 215 43 inlet~;
#X obj 432 45 inlet;
#X obj 603 42 inlet;
#X text 207 22 channel 1 in;
#X text 321 20 channel 2 in;
#X obj 870 61 inlet;
#X obj 325 44 inlet~;
#X floatatom 870 88 5 0 0 0 - - -;
#X text 874 40 pan;
#X obj 26 45 inlet;
#X text 25 24 bypass;
#N canvas 0 50 450 300 pan_abs 0;
#X obj 37 40 inlet~;
#X obj 214 39 inlet;
#X obj 197 284 outlet~;
#X obj 283 284 outlet~;
#X obj 196 244 *~;
#X obj 214 120 sig~;
#X obj 413 85 expr sin(($f1*3.14159)/2.);
#X obj 214 86 expr cos(($f1*3.14159)/2.);
#X text 37 16 channel 1;
#X obj 125 41 inlet~;
#X text 125 17 channel 2;
#X text 214 15 pan;
#X obj 413 118 sig~;
#X obj 282 247 *~;
#X connect 0 0 4 0;
#X connect 1 0 7 0;
#X connect 1 0 6 0;
#X connect 4 0 2 0;
#X connect 5 0 4 1;
#X connect 6 0 12 0;
#X connect 7 0 5 0;
#X connect 9 0 13 0;
#X connect 12 0 13 1;
#X connect 13 0 3 0;
#X restore 372 303 pd pan_abs;
#X f 17;
#X obj 432 81 clip 0 1;
#X obj 602 85 clip 0 1;
#X msg 602 107 1 \$1;
#X obj 602 129 -;
#N canvas 52 124 810 1041 wavetable_generator 0;
#X obj 14 164 f;
#X obj 43 164 + 1;
#X msg 32 139 0;
#X obj 14 113 until;
#X obj 14 8 loadbang;
#X obj 14 283 -;
#X obj 74 305 pow 2;
#X obj 14 329 * -1;
#X obj 14 351 pow 2;
#X obj 14 373 * -1;
#X obj 14 50 f 1;
#X obj 127 214 random 100;
#X obj 14 192 t f f b;
#X obj 283 215 i;
#X obj 14 71 t b b f b f f;
#X obj 304 240 * 0.5;
#X obj 14 228 moses 512;
#X msg 14 261 \$1 512;
#X obj 74 261 - 512;
#X obj 74 283 / 512;
#X obj 14 306 / 512;
#X msg 14 93 1024;
#X obj 14 454 clip -1 1;
#X obj 14 428 +;
#X obj 14 406 t f f;
#X obj 281 143 abs;
#X floatatom 216 351 5 0 0 0 - - -;
#X obj 282 185 * 100;
#X obj 217 264 - 50;
#X obj 201 305 * 0.005;
#X msg 290 278 1 \$1;
#X obj 290 300 -;
#X obj 290 322 * 0.01;
#X obj 294 354 max 0.002;
#X floatatom 282 389 5 0 0 0 - - -;
#X obj 21 29 r \$0-distortion-level;
#X obj 14 481 tabwrite \$0-dist-tran-func;
#X obj 14 509 array define \$0-dist-tran-func 1024;
#X connect 0 0 1 0;
#X connect 0 0 12 0;
#X connect 1 0 0 1;
#X connect 2 0 0 1;
#X connect 3 0 0 0;
#X connect 4 0 10 0;
#X connect 5 0 20 0;
#X connect 6 0 24 0;
#X connect 7 0 8 0;
#X connect 8 0 9 0;
#X connect 9 0 24 0;
#X connect 10 0 14 0;
#X connect 11 0 28 0;
#X connect 12 0 16 0;
#X connect 12 1 36 1;
#X connect 12 2 11 0;
#X connect 13 0 11 1;
#X connect 13 0 15 0;
#X connect 14 0 21 0;
#X connect 14 1 2 0;
#X connect 14 3 3 1;
#X connect 14 4 8 1;
#X connect 14 4 6 1;
#X connect 14 5 30 0;
#X connect 15 0 28 1;
#X connect 16 0 17 0;
#X connect 16 1 18 0;
#X connect 17 0 5 0;
#X connect 18 0 19 0;
#X connect 19 0 6 0;
#X connect 20 0 7 0;
#X connect 21 0 3 0;
#X connect 22 0 36 0;
#X connect 23 0 22 0;
#X connect 24 0 23 0;
#X connect 24 1 25 0;
#X connect 25 0 27 0;
#X connect 27 0 13 0;
#X connect 28 0 29 0;
#X connect 29 0 23 1;
#X connect 29 0 26 0;
#X connect 30 0 31 0;
#X connect 31 0 32 0;
#X connect 32 0 33 0;
#X connect 33 0 34 0;
#X connect 33 0 29 1;
#X connect 35 0 10 0;
#X restore 562 214 pd wavetable_generator;
#N canvas 247 784 835 872 upsampled_saturator 0;
#X obj 5 5 inlet~;
#X obj 128 3 inlet~;
#X obj 5 108 outlet~;
#X obj 128 106 outlet~;
#X obj 5 135 block~ 1024 1 16;
#N canvas 1 83 1094 1194 stereo_butterworth 0;
#X obj 57 230 *~ 0.125;
#X obj 57 253 rzero~ -1;
#X obj 57 276 rzero~ -1;
#X obj 57 299 rzero~ -1;
#X obj 57 373 outlet~;
#X obj 56 127 rpole~ 0.87467;
#X obj 56 104 *~ 0.12532;
#X obj 56 150 *~ 0.01668;
#X obj 56 173 cpole~ 0.9293 0.10812;
#X obj 56 199 cpole~ 0.9293 -0.10812;
#X obj 57 27 inlet~;
#X obj 277 230 *~ 0.125;
#X obj 277 253 rzero~ -1;
#X obj 277 276 rzero~ -1;
#X obj 277 299 rzero~ -1;
#X obj 277 373 outlet~;
#X obj 276 127 rpole~ 0.87467;
#X obj 276 104 *~ 0.12532;
#X obj 276 150 *~ 0.01668;
#X obj 276 173 cpole~ 0.9293 0.10812;
#X obj 276 199 cpole~ 0.9293 -0.10812;
#X obj 277 27 inlet~;
#X connect 0 0 1 0;
#X connect 1 0 2 0;
#X connect 2 0 3 0;
#X connect 3 0 4 0;
#X connect 5 0 7 0;
#X connect 6 0 5 0;
#X connect 7 0 8 0;
#X connect 8 0 9 0;
#X connect 8 1 9 1;
#X connect 9 0 0 0;
#X connect 10 0 6 0;
#X connect 11 0 12 0;
#X connect 12 0 13 0;
#X connect 13 0 14 0;
#X connect 14 0 15 0;
#X connect 16 0 18 0;
#X connect 17 0 16 0;
#X connect 18 0 19 0;
#X connect 19 0 20 0;
#X connect 19 1 20 1;
#X connect 20 0 11 0;
#X connect 21 0 17 0;
#X restore 5 28 pd stereo_butterworth;
#N canvas 544 870 967 981 saturation~ 0;
#X obj 5 129 *~;
#X obj 5 251 hip~ 5;
#X obj 4 229 lop~ 20000;
#X obj 180 129 *~;
#X obj 180 251 hip~ 5;
#X obj 179 229 lop~ 20000;
#X msg 89 45 \$1 10;
#X obj 6 275 *~ 0.112;
#X obj 179 274 *~ 0.112;
#X obj 6 302 outlet~;
#X obj 179 301 outlet~;
#X obj 83 97 *~;
#X obj 89 67 vline~;
#X obj 6 5 inlet~;
#X obj 241 12 inlet~;
#X obj 5 154 *~ 512;
#X obj 180 154 *~ 512;
#X obj 180 178 +~ 513;
#X obj 5 178 +~ 513;
#X obj 71 7 r \$0-distortion-gain;
#X obj 5 202 tabread4~ \$0-dist-tran-func;
#X obj 209 203 tabread4~ \$0-dist-tran-func;
#X floatatom 34 71 5 0 1 0 - - -;
#X connect 0 0 15 0;
#X connect 1 0 7 0;
#X connect 2 0 1 0;
#X connect 3 0 16 0;
#X connect 4 0 8 0;
#X connect 5 0 4 0;
#X connect 6 0 12 0;
#X connect 7 0 9 0;
#X connect 8 0 10 0;
#X connect 11 0 3 1;
#X connect 11 0 0 1;
#X connect 12 0 11 1;
#X connect 12 0 11 0;
#X connect 13 0 0 0;
#X connect 14 0 3 0;
#X connect 15 0 18 0;
#X connect 16 0 17 0;
#X connect 17 0 21 0;
#X connect 18 0 20 0;
#X connect 19 0 6 0;
#X connect 19 0 22 0;
#X connect 20 0 2 0;
#X connect 21 0 5 0;
#X restore 6 56 pd saturation~ ------;
#N canvas 1 78 477 436 stereo_butterworth 0;
#X obj 57 230 *~ 0.125;
#X obj 57 253 rzero~ -1;
#X obj 57 276 rzero~ -1;
#X obj 57 299 rzero~ -1;
#X obj 57 373 outlet~;
#X obj 56 127 rpole~ 0.87467;
#X obj 56 104 *~ 0.12532;
#X obj 56 150 *~ 0.01668;
#X obj 56 173 cpole~ 0.9293 0.10812;
#X obj 56 199 cpole~ 0.9293 -0.10812;
#X obj 57 27 inlet~;
#X obj 277 230 *~ 0.125;
#X obj 277 253 rzero~ -1;
#X obj 277 276 rzero~ -1;
#X obj 277 299 rzero~ -1;
#X obj 277 373 outlet~;
#X obj 276 127 rpole~ 0.87467;
#X obj 276 104 *~ 0.12532;
#X obj 276 150 *~ 0.01668;
#X obj 276 173 cpole~ 0.9293 0.10812;
#X obj 276 199 cpole~ 0.9293 -0.10812;
#X obj 277 27 inlet~;
#X connect 0 0 1 0;
#X connect 1 0 2 0;
#X connect 2 0 3 0;
#X connect 3 0 4 0;
#X connect 5 0 7 0;
#X connect 6 0 5 0;
#X connect 7 0 8 0;
#X connect 8 0 9 0;
#X connect 8 1 9 1;
#X connect 9 0 0 0;
#X connect 10 0 6 0;
#X connect 11 0 12 0;
#X connect 12 0 13 0;
#X connect 13 0 14 0;
#X connect 14 0 15 0;
#X connect 16 0 18 0;
#X connect 17 0 16 0;
#X connect 18 0 19 0;
#X connect 19 0 20 0;
#X connect 19 1 20 1;
#X connect 20 0 11 0;
#X connect 21 0 17 0;
#X restore 5 82 pd stereo_butterworth;
#X connect 0 0 5 0;
#X connect 1 0 5 1;
#X connect 5 0 6 0;
#X connect 5 1 6 1;
#X connect 6 0 7 0;
#X connect 6 1 7 1;
#X connect 7 0 2 0;
#X connect 7 1 3 0;
#X restore 356 222 pd upsampled_saturator;
#X obj 432 103 s \$0-distortion-gain;
#X obj 602 152 s \$0-distortion-level;
#X obj 27 76 s \$0-distortion_bypass;
#X text 438 19 gain;
#X text 598 18 level;
#X obj 986 47 inlet;
#X floatatom 1032 81 5 0 0 0 - - -;
#X text 965 23 output gain, f 12;
#X obj 986 106 s \$0-distortion_out_gain;
#X obj 281 472 *~;
#X obj 291 445 r \$0-distortion_out_gain;
#X obj 227 560 vspigot~;
#X obj 216 514 r \$0-distortion_bypass;
#X obj 223 612 outlet~;
#X obj 551 462 *~;
#X obj 561 435 r \$0-distortion_out_gain;
#X obj 497 550 vspigot~;
#X obj 486 504 r \$0-distortion_bypass;
#X obj 493 602 outlet~;
#X connect 0 0 17 0;
#X connect 0 0 29 1;
#X connect 1 0 12 0;
#X connect 2 0 13 0;
#X connect 5 0 7 0;
#X connect 6 0 17 1;
#X connect 6 0 34 1;
#X connect 7 0 11 2;
#X connect 9 0 20 0;
#X connect 11 0 27 0;
#X connect 11 1 32 0;
#X connect 12 0 18 0;
#X connect 13 0 14 0;
#X connect 14 0 15 0;
#X connect 15 0 19 0;
#X connect 17 0 11 0;
#X connect 17 1 11 1;
#X connect 23 0 24 0;
#X connect 23 0 26 0;
#X connect 27 0 29 2;
#X connect 28 0 27 1;
#X connect 29 0 31 0;
#X connect 30 0 29 0;
#X connect 32 0 34 2;
#X connect 33 0 32 1;
#X connect 34 0 36 0;
#X connect 35 0 34 0;
