#N canvas -1928 -8 1920 997 12;
#X obj 98 380 ezdac~;
#X obj 626 14 loadbang;
#X msg 626 48 \; pd dsp 1;
#X obj 61 416 chorus_pedal, f 44;
#X obj 195 10 receive fromGUI;
#X obj 195 32 list trim;
#X obj 195 53 route /chorusOnOffToggle;
#X obj 10 10 receive fromGUI;
#X obj 10 32 list trim;
#X obj 10 53 route /chorusBypassToggle;
#X obj 338 89 receive fromGUI;
#X obj 338 111 list trim;
#X obj 338 133 route /chorusSpeedSlider;
#X obj 402 184 receive fromGUI;
#X obj 402 206 list trim;
#X obj 401 229 route /chorusDepthSlider;
#X obj 587 207 receive fromGUI;
#X obj 587 229 list trim;
#X obj 587 251 route /chorusPanSlider;
#X obj 573 283 receive fromGUI;
#X obj 573 305 list trim;
#X obj 573 327 route /chorusOutputGainSlider;
#X obj 72 487 dac~;
#X obj 275 306 hsl 128 15 0 1 0 1 empty dampingSlider depth -2 -8 0
10 -143338 -1 -1 0 1;
#X obj 224 266 hsl 128 15 40 1000 0 1 empty /roomsizeSlider speed -2
-8 0 10 -232126 -1 -1 0 1;
#X obj 326 340 hsl 128 15 0 1 0 1 empty panSlider pan -2 -8 0 10 -262113
-1 -1 0 1;
#X obj 394 378 hsl 240 30 0 1 0 1 empty gainSlider gain -2 -8 0 10
-224695 -33289 -33289 0 1;
#X connect 0 0 3 1;
#X connect 0 1 3 2;
#X connect 1 0 2 0;
#X connect 3 0 22 0;
#X connect 3 1 22 1;
#X connect 4 0 5 0;
#X connect 5 0 6 0;
#X connect 6 0 0 0;
#X connect 7 0 8 0;
#X connect 8 0 9 0;
#X connect 9 0 3 0;
#X connect 10 0 11 0;
#X connect 11 0 12 0;
#X connect 12 0 3 3;
#X connect 13 0 14 0;
#X connect 14 0 15 0;
#X connect 15 0 3 4;
#X connect 16 0 17 0;
#X connect 17 0 18 0;
#X connect 18 0 3 5;
#X connect 19 0 20 0;
#X connect 20 0 21 0;
#X connect 21 0 3 6;
#X connect 23 0 3 4;
#X connect 24 0 3 3;
#X connect 25 0 3 5;
#X connect 26 0 3 6;
