#N canvas -8 -8 1920 997 12;
#X obj 215 43 inlet~;
#X obj 442 45 inlet;
#X obj 624 43 inlet;
#X text 207 22 channel 1 in;
#X text 321 20 channel 2 in;
#X obj 1083 41 inlet;
#X obj 325 44 inlet~;
#X floatatom 1083 68 5 0 0 0 - - -;
#X text 1087 20 pan;
#X obj 26 45 inlet;
#X text 25 24 bypass;
#X obj 443 828 outlet~;
#X obj 684 824 outlet~;
#N canvas 0 50 450 300 pan_abs 0;
#X obj 37 40 inlet~;
#X obj 214 39 inlet;
#X obj 197 284 outlet~;
#X obj 283 284 outlet~;
#X obj 196 244 *~;
#X obj 214 120 sig~;
#X obj 413 85 expr sin(($f1*3.14159)/2.);
#X obj 214 86 expr cos(($f1*3.14159)/2.);
#X text 37 16 channel 1;
#X obj 125 41 inlet~;
#X text 125 17 channel 2;
#X text 214 15 pan;
#X obj 413 118 sig~;
#X obj 282 247 *~;
#X connect 0 0 4 0;
#X connect 1 0 7 0;
#X connect 1 0 6 0;
#X connect 4 0 2 0;
#X connect 5 0 4 1;
#X connect 6 0 12 0;
#X connect 7 0 5 0;
#X connect 9 0 13 0;
#X connect 12 0 13 1;
#X connect 13 0 3 0;
#X restore 579 688 pd pan_abs;
#X f 17;
#X obj 24 175 delwrite~ \$0-chorus 2000;
#X msg 908 170 0;
#X obj 863 199 osc~ 0.5;
#X obj 863 290 *~;
#X obj 863 229 +~ 2;
#X obj 438 321 vd~ \$0-chorus;
#X msg 483 171 0.35;
#X obj 438 200 osc~ 0.2;
#X obj 438 229 +~ 2;
#X obj 438 291 *~;
#X obj 720 201 osc~ 0.5;
#X obj 720 258 *~ 2;
#X obj 720 289 *~;
#X obj 720 230 +~ 2;
#X msg 765 171 0.75;
#X obj 438 256 *~ 2;
#X obj 863 257 *~ 2;
#X obj 579 319 vd~ \$0-chorus;
#X obj 579 200 osc~ 0.5;
#X obj 579 257 *~ 2;
#X obj 579 288 *~;
#X obj 579 229 +~ 2;
#X msg 624 170 0.65;
#X obj 720 171 * 0.3;
#X obj 579 170 * 0.2;
#X obj 992 150 loadbang;
#X obj 438 352 *~ 0.5;
#X obj 579 351 *~ 0.5;
#X obj 720 352 *~ 0.5;
#X obj 863 350 *~ 0.5;
#X obj 21 203 delwrite~ \$0-chorus-2 2000;
#X obj 720 320 vd~ \$0-chorus-2;
#X obj 863 318 vd~ \$0-chorus-2;
#X obj 437 119 s \$0-chorus-speed;
#X obj 438 145 r \$0-chorus-speed;
#X obj 579 144 r \$0-chorus-speed;
#X obj 716 143 r \$0-chorus-speed;
#X obj 863 143 r \$0-chorus-speed;
#X obj 598 116 s \$0-chorus-depth;
#X obj 469 268 r \$0-chorus-depth;
#X obj 610 268 r \$0-chorus-depth;
#X obj 751 269 r \$0-chorus-depth;
#X obj 894 267 r \$0-chorus-depth;
#X obj 624 93 * 5;
#X obj 27 76 s \$0-chorus_bypass;
#X text 448 19 speed;
#X text 619 19 depth;
#X obj 1206 47 inlet;
#X floatatom 1252 81 5 0 0 0 - - -;
#X text 1185 23 output gain, f 12;
#X obj 1206 106 s \$0-chorus_out_gain;
#X obj 446 792 vspigot~;
#X obj 437 760 r \$0-chorus_bypass;
#X obj 503 739 *~;
#X obj 486 710 r \$0-chorus_out_gain;
#X obj 684 787 vspigot~;
#X obj 675 755 r \$0-chorus_bypass;
#X obj 737 729 *~;
#X obj 750 707 r \$0-chorus_out_gain;
#X connect 0 0 14 0;
#X connect 0 0 13 0;
#X connect 0 0 65 1;
#X connect 1 0 47 0;
#X connect 2 0 57 0;
#X connect 5 0 7 0;
#X connect 6 0 44 0;
#X connect 6 0 69 1;
#X connect 6 0 13 1;
#X connect 7 0 13 2;
#X connect 9 0 58 0;
#X connect 13 0 67 0;
#X connect 13 1 71 0;
#X connect 15 0 16 1;
#X connect 16 0 18 0;
#X connect 17 0 46 0;
#X connect 18 0 30 0;
#X connect 19 0 40 0;
#X connect 20 0 21 1;
#X connect 21 0 22 0;
#X connect 22 0 29 0;
#X connect 23 0 19 0;
#X connect 24 0 27 0;
#X connect 25 0 26 0;
#X connect 26 0 45 0;
#X connect 27 0 25 0;
#X connect 28 0 24 1;
#X connect 29 0 23 0;
#X connect 30 0 17 0;
#X connect 31 0 41 0;
#X connect 32 0 35 0;
#X connect 33 0 34 0;
#X connect 34 0 31 0;
#X connect 35 0 33 0;
#X connect 36 0 32 1;
#X connect 37 0 24 0;
#X connect 38 0 32 0;
#X connect 39 0 20 0;
#X connect 39 0 15 0;
#X connect 39 0 28 0;
#X connect 39 0 36 0;
#X connect 40 0 13 0;
#X connect 41 0 13 0;
#X connect 42 0 13 1;
#X connect 43 0 13 1;
#X connect 45 0 42 0;
#X connect 46 0 43 0;
#X connect 48 0 21 0;
#X connect 49 0 38 0;
#X connect 50 0 37 0;
#X connect 51 0 16 0;
#X connect 53 0 23 1;
#X connect 54 0 34 1;
#X connect 55 0 26 1;
#X connect 56 0 17 1;
#X connect 57 0 52 0;
#X connect 61 0 62 0;
#X connect 61 0 64 0;
#X connect 65 0 11 0;
#X connect 66 0 65 0;
#X connect 67 0 65 2;
#X connect 68 0 67 1;
#X connect 69 0 12 0;
#X connect 70 0 69 0;
#X connect 71 0 69 2;
#X connect 72 0 71 1;
